<svg width="568" height="403" viewBox="0 0 568 403" fill="none" xmlns="http://www.w3.org/2000/svg">
    <g clip-path="url(#clip0_246_19)">
        <rect width="568" height="403" fill="#121212"/>
        <g clip-path="url(#clip1_246_19)">
            <rect width="366" height="403" transform="translate(202)" fill="#F3F3F3"/>
            <mask id="path-1-inside-1_246_19" fill="white">
                <path d="M404 137C404 125.954 412.954 117 424 117H843V425H404V137Z"/>
            </mask>
            <path d="M404 137C404 125.954 412.954 117 424 117H843V425H404V137Z" fill="white"/>
            <path d="M402 137C402 124.85 411.85 115 424 115H843V119H424C414.059 119 406 127.059 406 137H402ZM843 425H404H843ZM402 425V137C402 124.85 411.85 115 424 115V119C414.059 119 406 127.059 406 137V425H402ZM843 117V425V117Z" fill="#E5E7EB" mask="url(#path-1-inside-1_246_19)"/>
            <path d="M445.148 191H432.364L446.767 147.364H462.96L477.364 191H464.58L455.034 159.381H454.693L445.148 191ZM442.761 173.784H466.795V182.648H442.761V173.784ZM490.856 191.511C488.768 191.511 486.922 191.17 485.316 190.489C483.725 189.793 482.475 188.741 481.566 187.335C480.657 185.929 480.203 184.139 480.203 181.966C480.203 180.176 480.508 178.649 481.119 177.385C481.73 176.107 482.582 175.062 483.676 174.253C484.77 173.443 486.041 172.825 487.49 172.399C488.953 171.973 490.529 171.696 492.22 171.568C494.052 171.426 495.522 171.256 496.63 171.057C497.752 170.844 498.562 170.553 499.059 170.183C499.556 169.8 499.805 169.295 499.805 168.67V168.585C499.805 167.733 499.478 167.08 498.825 166.625C498.172 166.17 497.333 165.943 496.311 165.943C495.189 165.943 494.272 166.192 493.562 166.689C492.866 167.172 492.447 167.918 492.305 168.926H481.481C481.623 166.937 482.255 165.105 483.377 163.429C484.514 161.739 486.169 160.389 488.342 159.381C490.515 158.358 493.228 157.847 496.481 157.847C498.825 157.847 500.927 158.124 502.788 158.678C504.649 159.217 506.233 159.977 507.539 160.957C508.846 161.923 509.841 163.06 510.522 164.366C511.218 165.659 511.566 167.065 511.566 168.585V191H500.572V186.398H500.316C499.663 187.619 498.868 188.607 497.93 189.359C497.007 190.112 495.949 190.659 494.755 191C493.576 191.341 492.277 191.511 490.856 191.511ZM494.691 184.097C495.586 184.097 496.424 183.912 497.206 183.543C498.001 183.173 498.647 182.641 499.145 181.945C499.642 181.249 499.89 180.403 499.89 179.409V176.682C499.578 176.81 499.244 176.93 498.889 177.044C498.548 177.158 498.179 177.264 497.781 177.364C497.397 177.463 496.985 177.555 496.545 177.641C496.119 177.726 495.672 177.804 495.203 177.875C494.294 178.017 493.548 178.251 492.966 178.578C492.397 178.891 491.971 179.281 491.687 179.75C491.417 180.205 491.282 180.716 491.282 181.284C491.282 182.193 491.602 182.889 492.241 183.372C492.88 183.855 493.697 184.097 494.691 184.097Z" fill="black"/>
        </g>
        <g clip-path="url(#clip2_246_19)">
            <rect width="366" height="403" transform="translate(-82)" fill="#1F1F1F"/>
            <mask id="path-4-inside-2_246_19" fill="white">
                <path d="M120 137C120 125.954 128.954 117 140 117H559V425H120V137Z"/>
            </mask>
            <path d="M120 137C120 125.954 128.954 117 140 117H559V425H120V137Z" fill="#121212"/>
            <path d="M118 137C118 124.85 127.85 115 140 115H559V119H140C130.059 119 122 127.059 122 137H118ZM559 425H120H559ZM118 425V137C118 124.85 127.85 115 140 115V119C130.059 119 122 127.059 122 137V425H118ZM559 117V425V117Z" fill="#E5E7EB" fill-opacity="0.1" mask="url(#path-4-inside-2_246_19)"/>
            <path d="M161.148 191H148.364L162.767 147.364H178.96L193.364 191H180.58L171.034 159.381H170.693L161.148 191ZM158.761 173.784H182.795V182.648H158.761V173.784ZM206.856 191.511C204.768 191.511 202.922 191.17 201.316 190.489C199.725 189.793 198.475 188.741 197.566 187.335C196.657 185.929 196.203 184.139 196.203 181.966C196.203 180.176 196.508 178.649 197.119 177.385C197.73 176.107 198.582 175.062 199.676 174.253C200.77 173.443 202.041 172.825 203.49 172.399C204.953 171.973 206.529 171.696 208.22 171.568C210.052 171.426 211.522 171.256 212.63 171.057C213.752 170.844 214.562 170.553 215.059 170.183C215.556 169.8 215.805 169.295 215.805 168.67V168.585C215.805 167.733 215.478 167.08 214.825 166.625C214.172 166.17 213.333 165.943 212.311 165.943C211.189 165.943 210.272 166.192 209.562 166.689C208.866 167.172 208.447 167.918 208.305 168.926H197.481C197.623 166.937 198.255 165.105 199.377 163.429C200.514 161.739 202.169 160.389 204.342 159.381C206.515 158.358 209.228 157.847 212.481 157.847C214.825 157.847 216.927 158.124 218.788 158.678C220.649 159.217 222.233 159.977 223.539 160.957C224.846 161.923 225.841 163.06 226.522 164.366C227.218 165.659 227.566 167.065 227.566 168.585V191H216.572V186.398H216.316C215.663 187.619 214.868 188.607 213.93 189.359C213.007 190.112 211.949 190.659 210.755 191C209.576 191.341 208.277 191.511 206.856 191.511ZM210.691 184.097C211.586 184.097 212.424 183.912 213.206 183.543C214.001 183.173 214.647 182.641 215.145 181.945C215.642 181.249 215.89 180.403 215.89 179.409V176.682C215.578 176.81 215.244 176.93 214.889 177.044C214.548 177.158 214.179 177.264 213.781 177.364C213.397 177.463 212.985 177.555 212.545 177.641C212.119 177.726 211.672 177.804 211.203 177.875C210.294 178.017 209.548 178.251 208.966 178.578C208.397 178.891 207.971 179.281 207.687 179.75C207.417 180.205 207.282 180.716 207.282 181.284C207.282 182.193 207.602 182.889 208.241 183.372C208.88 183.855 209.697 184.097 210.691 184.097Z" fill="white"/>
        </g>
    </g>
    <defs>
        <clipPath id="clip0_246_19">
            <rect width="568" height="403" fill="white"/>
        </clipPath>
        <clipPath id="clip1_246_19">
            <rect width="366" height="403" fill="white" transform="translate(202)"/>
        </clipPath>
        <clipPath id="clip2_246_19">
            <rect width="366" height="403" fill="white" transform="translate(-82)"/>
        </clipPath>
    </defs>
</svg>
