<svg xmlns="http://www.w3.org/2000/svg" width="568" height="403" fill="none" viewBox="0 0 568 403"><path fill="#1f1f1f" d="M284 0H0v403h284z"/><path fill="#121212" d="M150 135.571c0-10.257 8.954-18.571 20-18.571h114v286H150z"/><path fill="#272727" d="M149 137c0-12.15 9.85-22 22-22l113 1v4l-113-1c-9.941 0-18 8.059-18 18zm0 266V137c0-12.15 9.85-22 22-22v4c-9.941 0-18 8.059-18 18l-.5 266z"/><path fill="#fff" d="M190.147 191h-12.784l14.403-43.636h16.193L222.363 191h-12.784l-9.546-31.619h-.341zm-2.387-17.216h24.034v8.864H187.76zm48.095 17.727q-3.132 0-5.54-1.022-2.386-1.044-3.75-3.154t-1.363-5.369q0-2.685.916-4.581.916-1.918 2.557-3.132 1.64-1.215 3.814-1.854 2.194-.639 4.73-.831 2.748-.213 4.41-.511 1.683-.32 2.429-.874a1.82 1.82 0 0 0 .746-1.513v-.085q0-1.278-.98-1.96t-2.514-.682q-1.683 0-2.749.746-1.044.725-1.257 2.237H226.48a11.15 11.15 0 0 1 1.896-5.497q1.706-2.535 4.965-4.048 3.26-1.534 8.139-1.534 3.516 0 6.307.831 2.792.809 4.751 2.279 1.961 1.45 2.983 3.409 1.044 1.94 1.044 4.219V191h-10.994v-4.602h-.256q-.98 1.832-2.386 2.961a8.8 8.8 0 0 1-3.175 1.641q-1.768.511-3.899.511m3.835-7.414q1.342 0 2.515-.554a4.86 4.86 0 0 0 1.939-1.598q.745-1.045.745-2.536v-2.727q-.468.191-1.001.362-.511.17-1.108.32-.576.148-1.236.277-.639.128-1.342.234-1.364.213-2.237.703-.853.469-1.279 1.172-.405.682-.405 1.534 0 1.363.959 2.088t2.45.725"/><path fill="#f3f3f3" d="M568 0H284v403h284z"/><path fill="#fff" d="M434 135.571c0-10.257 8.954-18.571 20-18.571h114v286H434z"/><path fill="#e5e7eb" d="M433 137c0-12.15 9.85-22 22-22l113 1v4l-113-1c-9.941 0-18 8.059-18 18zm0 266V137c0-12.15 9.85-22 22-22v4c-9.941 0-18 8.059-18 18l-.5 266z"/><path fill="#000" d="M474.147 191h-12.784l14.403-43.636h16.193L506.363 191h-12.784l-9.546-31.619h-.341zm-2.387-17.216h24.034v8.864H471.76zm48.095 17.727q-3.131 0-5.54-1.022-2.387-1.044-3.75-3.154t-1.363-5.369q0-2.685.916-4.581.916-1.918 2.557-3.132 1.64-1.215 3.814-1.854 2.194-.639 4.73-.831 2.748-.213 4.41-.511 1.683-.32 2.429-.874a1.82 1.82 0 0 0 .746-1.513v-.085q0-1.278-.98-1.96t-2.514-.682q-1.683 0-2.749.746-1.044.725-1.257 2.237H510.48a11.15 11.15 0 0 1 1.896-5.497q1.706-2.535 4.965-4.048 3.26-1.534 8.139-1.534 3.516 0 6.307.831 2.792.809 4.751 2.279 1.961 1.45 2.983 3.409 1.044 1.94 1.044 4.219V191h-10.994v-4.602h-.256q-.98 1.832-2.386 2.961a8.8 8.8 0 0 1-3.175 1.641q-1.768.511-3.899.511m3.835-7.414q1.342 0 2.515-.554a4.86 4.86 0 0 0 1.939-1.598q.745-1.045.745-2.536v-2.727q-.468.191-1.001.362-.511.17-1.108.32-.576.148-1.236.277-.639.128-1.342.234-1.364.213-2.237.703-.853.469-1.279 1.172-.405.682-.405 1.534 0 1.363.959 2.088t2.45.725"/></svg>