<svg width="568" height="403" viewBox="0 0 568 403" fill="none" xmlns="http://www.w3.org/2000/svg">
    <g clip-path="url(#clip0_246_4)">
        <rect width="568" height="403" fill="#F3F3F3"/>
        <mask id="path-1-inside-1_246_4" fill="white">
            <path d="M202 137C202 125.954 210.954 117 222 117H641V425H202V137Z"/>
        </mask>
        <path d="M202 137C202 125.954 210.954 117 222 117H641V425H202V137Z" fill="white"/>
        <path d="M200 137C200 124.85 209.85 115 222 115H641V119H222C212.059 119 204 127.059 204 137H200ZM641 425H202H641ZM200 425V137C200 124.85 209.85 115 222 115V119C212.059 119 204 127.059 204 137V425H200ZM641 117V425V117Z" fill="#E5E7EB" mask="url(#path-1-inside-1_246_4)"/>
        <path d="M243.148 191H230.364L244.767 147.364H260.96L275.364 191H262.58L253.034 159.381H252.693L243.148 191ZM240.761 173.784H264.795V182.648H240.761V173.784ZM288.856 191.511C286.768 191.511 284.922 191.17 283.316 190.489C281.725 189.793 280.475 188.741 279.566 187.335C278.657 185.929 278.203 184.139 278.203 181.966C278.203 180.176 278.508 178.649 279.119 177.385C279.73 176.107 280.582 175.062 281.676 174.253C282.77 173.443 284.041 172.825 285.49 172.399C286.953 171.973 288.529 171.696 290.22 171.568C292.052 171.426 293.522 171.256 294.63 171.057C295.752 170.844 296.562 170.553 297.059 170.183C297.556 169.8 297.805 169.295 297.805 168.67V168.585C297.805 167.733 297.478 167.08 296.825 166.625C296.172 166.17 295.333 165.943 294.311 165.943C293.189 165.943 292.272 166.192 291.562 166.689C290.866 167.172 290.447 167.918 290.305 168.926H279.481C279.623 166.937 280.255 165.105 281.377 163.429C282.514 161.739 284.169 160.389 286.342 159.381C288.515 158.358 291.228 157.847 294.481 157.847C296.825 157.847 298.927 158.124 300.788 158.678C302.649 159.217 304.233 159.977 305.539 160.957C306.846 161.923 307.841 163.06 308.522 164.366C309.218 165.659 309.566 167.065 309.566 168.585V191H298.572V186.398H298.316C297.663 187.619 296.868 188.607 295.93 189.359C295.007 190.112 293.949 190.659 292.755 191C291.576 191.341 290.277 191.511 288.856 191.511ZM292.691 184.097C293.586 184.097 294.424 183.912 295.206 183.543C296.001 183.173 296.647 182.641 297.145 181.945C297.642 181.249 297.89 180.403 297.89 179.409V176.682C297.578 176.81 297.244 176.93 296.889 177.044C296.548 177.158 296.179 177.264 295.781 177.364C295.397 177.463 294.985 177.555 294.545 177.641C294.119 177.726 293.672 177.804 293.203 177.875C292.294 178.017 291.548 178.251 290.966 178.578C290.397 178.891 289.971 179.281 289.687 179.75C289.417 180.205 289.282 180.716 289.282 181.284C289.282 182.193 289.602 182.889 290.241 183.372C290.88 183.855 291.697 184.097 292.691 184.097Z" fill="black"/>
    </g>
    <defs>
        <clipPath id="clip0_246_4">
            <rect width="568" height="403" fill="white"/>
        </clipPath>
    </defs>
</svg>
